<svg xmlns="http://www.w3.org/2000/svg" width="136" height="62" viewBox="0 0 136 62">
  <path fill="#0060FF" fill-rule="evenodd" d="M90.9023948,31.8624579 C91.9007997,29.1445778 93.2735859,26.8566008 95.0207945,24.9984583 C96.7680032,23.1403158 98.8202492,21.7397965 101.177594,20.7968585 C103.534939,19.8539205 106.044781,19.3824586 108.707194,19.3824586 C110.260268,19.3824586 111.68852,19.5349904 112.991993,19.8400586 C114.295467,20.1451268 115.446388,20.5749891 116.444793,21.1296585 C117.443198,21.6843279 118.330656,22.3499212 119.107193,23.1264584 C119.88373,23.9029956 120.521591,24.7627203 121.020793,25.7056582 L121.353593,25.7056582 C121.187192,24.4853855 121.062393,23.209665 120.979193,21.8784585 C120.895993,20.5472519 120.82666,19.2853979 120.771193,18.0928587 C120.715726,16.9003195 120.687993,15.8603299 120.687993,14.9728589 L120.687993,12.0608591 L120.687993,6.07045941 C120.687993,5.07205448 120.812792,4.19846327 121.062393,3.44965957 C121.311994,2.70085587 121.68639,2.07686215 122.185593,1.57765968 C122.684795,1.07845721 123.308789,0.704060981 124.057593,0.454459748 C124.806396,0.204858515 125.679988,0.0800597704 126.678393,0.0800597704 L129.340792,0.0800597704 C130.339197,0.0800597704 131.212789,0.204858515 131.961592,0.454459748 C132.710396,0.704060981 133.33439,1.07845721 133.833592,1.57765968 C134.332795,2.07686215 134.707191,2.70085587 134.956792,3.44965957 C135.206393,4.19846327 135.331192,5.07205448 135.331192,6.07045941 L135.331192,55.2416565 C135.331192,56.1845945 135.206393,57.0165861 134.956792,57.7376563 C134.707191,58.4587266 134.346661,59.0549872 133.875192,59.5264562 C133.403723,59.9979252 132.807463,60.3584549 132.086392,60.6080562 C131.365322,60.8576574 130.53333,60.9824561 129.590392,60.9824561 L127.094393,60.9824561 C126.151455,60.9824561 125.33333,60.8715239 124.639993,60.6496562 C123.946656,60.4277884 123.364262,60.0949917 122.892793,59.6512562 C122.421324,59.2075207 122.046928,58.6667261 121.769593,58.0288563 C121.492258,57.3909865 121.353593,56.6283275 121.353593,55.7408565 L121.020793,55.6576565 C120.521591,56.6005944 119.88373,57.4603191 119.107193,58.2368563 C118.330656,59.0133935 117.415465,59.6789868 116.361593,60.2336562 C115.307721,60.7883256 114.087467,61.2181879 112.700793,61.5232561 C111.31412,61.8283243 109.761069,61.9808561 108.041594,61.9808561 C105.490114,61.9808561 103.091205,61.5371272 100.844794,60.6496562 C98.5983831,59.7621851 96.6154697,58.4309985 94.8959945,56.6560564 C93.1765194,54.8811143 91.8314662,52.6763365 90.8607948,50.0416568 C89.8901233,47.4069771 89.4047949,44.3979407 89.4047949,41.0144573 C89.4047949,37.6309739 89.9039898,34.580338 90.9023948,31.8624579 Z M104.380794,41.0144573 C104.380794,42.6229986 104.547192,44.078984 104.879994,45.3824571 C105.212796,46.6859302 105.711991,47.8091189 106.377594,48.7520569 C107.043197,49.6949949 107.875189,50.4160543 108.873594,50.9152567 C109.871999,51.4144592 111.036787,51.6640567 112.367993,51.6640567 C113.6992,51.6640567 114.877855,51.4005927 115.903993,50.8736567 C116.930132,50.3467208 117.803723,49.5840618 118.524793,48.5856569 C119.245863,47.5872519 119.786658,46.4224637 120.147193,45.0912571 C120.507728,43.7600505 120.687993,42.2901986 120.687993,40.6816574 C120.687993,39.0731161 120.507728,37.6032642 120.147193,36.2720576 C119.786658,34.940851 119.245863,33.7760628 118.524793,32.7776578 C117.803723,31.7792529 116.930132,31.0165939 115.903993,30.489658 C114.877855,29.962722 113.6992,29.699258 112.367993,29.699258 C111.092254,29.699258 109.941332,29.9904551 108.915194,30.572858 C107.889055,31.1552608 107.043197,31.9595194 106.377594,32.9856578 C105.711991,34.0117962 105.212796,35.2043175 104.879994,36.5632576 C104.547192,37.9221976 104.380794,39.4059161 104.380794,41.0144573 Z M48.4031971,54.9920565 L48.4031971,6.07045941 C48.4031971,5.07205448 48.5279959,4.19846327 48.7775971,3.44965957 C49.0271984,2.70085587 49.4015946,2.07686215 49.9007971,1.57765968 C50.3999995,1.07845721 51.0239932,0.704060981 51.7727969,0.454459748 C52.5216006,0.204858515 53.3951919,0.0800597704 54.3935968,0.0800597704 L57.0559966,0.0800597704 C58.0544016,0.0800597704 58.9279928,0.204858515 59.6767965,0.454459748 C60.4256002,0.704060981 61.0495939,1.07845721 61.5487964,1.57765968 C62.0479988,2.07686215 62.4223951,2.70085587 62.6719963,3.44965957 C62.9215975,4.19846327 63.0463963,5.07205448 63.0463963,6.07045941 L63.0463963,34.1088577 L70.7007958,25.7056582 C71.6437338,24.6517864 72.489592,23.7920617 73.2383957,23.1264584 C73.9871994,22.4608551 74.7082588,21.9200605 75.4015955,21.5040585 C76.0949323,21.0880564 76.8298582,20.7968594 77.6063954,20.6304585 C78.3829326,20.4640577 79.2703903,20.3808586 80.2687952,20.3808586 L83.5967951,20.3808586 C84.5952,20.3808586 85.4271916,20.5472569 86.0927949,20.8800585 C86.7583982,21.2128602 87.2298601,21.6704556 87.5071948,22.2528584 C87.7845295,22.8352613 87.8261291,23.4869881 87.6319948,24.2080583 C87.4378605,24.9291286 86.9802651,25.650188 86.2591949,26.3712582 L76.2751955,36.8544576 L88.9215947,54.9920565 C89.5317311,55.8240606 89.8783943,56.6005861 89.9615947,57.3216564 C90.0447951,58.0427266 89.8922633,58.6805868 89.5039947,59.2352562 C89.1157261,59.7899257 88.561065,60.219788 87.8399948,60.5248562 C87.1189246,60.8299243 86.2591999,60.9824561 85.260795,60.9824561 L80.3519952,60.9824561 C79.3535903,60.9824561 78.5077322,60.8576574 77.8143954,60.6080562 C77.1210586,60.3584549 76.4970649,59.9979252 75.9423955,59.5264562 C75.3877261,59.0549872 74.8607981,58.4864596 74.3615956,57.8208563 C73.8623931,57.155253 73.1967998,56.2123292 72.3647957,54.9920565 L66.873596,46.755257 L63.0463963,50.8320567 L63.0463963,54.9920565 C63.0463963,55.9904614 62.9215975,56.8640526 62.6719963,57.6128563 C62.4223951,58.36166 62.0479988,58.9856538 61.5487964,59.4848562 C61.0495939,59.9840587 60.4256002,60.3584549 59.6767965,60.6080562 C58.9279928,60.8576574 58.0544016,60.9824561 57.0559966,60.9824561 L54.3935968,60.9824561 C53.3951919,60.9824561 52.5216006,60.8576574 51.7727969,60.6080562 C51.0239932,60.3584549 50.3999995,59.9840587 49.9007971,59.4848562 C49.4015946,58.9856538 49.0271984,58.36166 48.7775971,57.6128563 C48.5279959,56.8640526 48.4031971,55.9904614 48.4031971,54.9920565 Z M0.662399841,40.6816574 C0.662399841,37.298174 1.21706093,34.2891376 2.32639974,31.6544579 C3.43573856,29.0197782 5.03038918,26.7872673 7.11039946,24.9568583 C9.19040973,23.1264492 11.6863846,21.7397965 14.598399,20.7968585 C17.5104134,19.8539205 20.7413142,19.3824586 24.2911984,19.3824586 C27.1200124,19.3824586 29.6159873,19.6459226 31.779198,20.1728586 C33.9424087,20.6997945 35.7727903,21.4347204 37.2703977,22.3776584 C38.7680051,23.3205964 40.029859,24.4021856 41.0559974,25.6224582 C42.0821358,26.8427309 42.955727,28.2016506 43.6767973,29.699258 C44.0095989,30.4203282 44.1898638,31.1275211 44.2175972,31.8208579 C44.2453307,32.5141946 44.0927989,33.1243218 43.7599973,33.6512578 C43.4271956,34.1781937 42.9418672,34.5941895 42.3039974,34.8992577 C41.6661275,35.2043259 40.8757355,35.3568577 39.9327975,35.3568577 L35.1071978,35.3568577 C34.4415945,35.3568577 33.8592004,35.3013916 33.3599979,35.1904577 C32.8607954,35.0795238 32.4309331,34.9131255 32.070398,34.6912577 C31.7098629,34.4693899 31.3770662,34.2059259 31.071998,33.9008578 C30.7669299,33.5957896 30.4757328,33.2213933 30.1983981,32.7776578 C29.9210634,32.3893892 29.5882667,32.014993 29.1999981,31.6544579 C28.8117296,31.2939228 28.3680007,30.9611261 27.8687982,30.6560579 C27.3695958,30.3509898 26.7872016,30.1152588 26.1215983,29.948858 C25.455995,29.7824572 24.7349356,29.699258 23.9583985,29.699258 C22.6271919,29.699258 21.4485371,29.962722 20.4223987,30.489658 C19.3962603,31.0165939 18.522669,31.7792529 17.8015988,32.7776578 C17.0805286,33.7760628 16.539734,34.940851 16.1791989,36.2720576 C15.8186638,37.6032642 15.6383989,39.0731161 15.6383989,40.6816574 C15.6383989,42.2901986 15.8186638,43.7600505 16.1791989,45.0912571 C16.539734,46.4224637 17.0805286,47.5872519 17.8015988,48.5856569 C18.522669,49.5840618 19.3962603,50.3467208 20.4223987,50.8736567 C21.4485371,51.4005927 22.6271919,51.6640567 23.9583985,51.6640567 C24.7904026,51.6640567 25.5530616,51.5808575 26.2463983,51.4144567 C26.9397351,51.2480559 27.5221292,51.0123249 27.9935982,50.7072568 C28.4650672,50.4021886 28.881063,50.0832585 29.2415981,49.7504568 C29.6021333,49.4176552 29.9210634,49.0293924 30.1983981,48.5856569 C30.4757328,48.1419214 30.7669299,47.7675251 31.071998,47.4624569 C31.3770662,47.1573888 31.7098629,46.8939248 32.070398,46.672057 C32.4309331,46.4501892 32.8607954,46.2837909 33.3599979,46.172857 C33.8592004,46.0619231 34.4415945,46.006457 35.1071978,46.006457 L39.9327975,46.006457 C40.8757355,46.006457 41.6661275,46.1589888 42.3039974,46.464057 C42.9418672,46.7691252 43.4271956,47.185121 43.7599973,47.7120569 C44.0927989,48.2389929 44.2453307,48.8491201 44.2175972,49.5424568 C44.1898638,50.2357936 44.0095989,50.9429865 43.6767973,51.6640567 C42.955727,53.1616641 42.0821358,54.5205838 41.0559974,55.7408565 C40.029859,56.9611291 38.7680051,58.0427183 37.2703977,58.9856563 C35.7727903,59.9285943 33.9424087,60.6635202 31.779198,61.1904561 C29.6159873,61.7173921 27.1200124,61.9808561 24.2911984,61.9808561 C20.6858473,61.9808561 17.4272134,61.5371272 14.515199,60.6496562 C11.6031846,59.7621851 9.12107627,58.4309985 7.06879946,56.6560564 C5.01652265,54.8811143 3.43573856,52.6486034 2.32639974,49.9584568 C1.21706093,47.2683102 0.662399841,44.1760746 0.662399841,40.6816574 Z M130.6,39.016 C130.439999,39.090667 130.290667,39.1333333 130.152,39.144 C130.013333,39.1546667 129.896,39.130667 129.8,39.072 C129.704,39.013333 129.632,38.9280006 129.584,38.816 C129.536,38.7039994 129.512,38.5733341 129.512,38.424 L129.512,37.56 C129.512,37.4319994 129.522667,37.3146672 129.544,37.208 C129.565333,37.1013328 129.597333,37.0080004 129.64,36.928 C129.682667,36.8479996 129.728,36.7760003 129.776,36.712 C129.824,36.6479997 129.874666,36.5946669 129.928,36.552 C130.013334,36.477333 130.085333,36.4080003 130.144,36.344 C130.202667,36.2799997 130.256,36.1973338 130.304,36.096 C130.352,35.9946662 130.392,35.8720007 130.424,35.728 C130.456,35.5839993 130.472,35.416001 130.472,35.224 C130.472,35.0106656 130.458667,34.8213342 130.432,34.656 C130.405333,34.4906658 130.365334,34.3493339 130.312,34.232 C130.258666,34.1146661 130.192,34.026667 130.112,33.968 C130.032,33.909333 129.938667,33.88 129.832,33.88 C129.714666,33.88 129.616,33.9013331 129.536,33.944 C129.456,33.9866669 129.389334,34.0533329 129.336,34.144 C129.282666,34.2346671 129.24,34.346666 129.208,34.48 C129.176,34.613334 129.149333,34.775999 129.128,34.968 L128.936,36.312 C128.872,36.7386688 128.781334,37.114665 128.664,37.44 C128.546666,37.765335 128.397334,38.0399989 128.216,38.264 C128.034666,38.4880011 127.813335,38.6559994 127.552,38.768 C127.290665,38.8800006 126.984002,38.936 126.632,38.936 C126.194664,38.936 125.805335,38.8480009 125.464,38.672 C125.122665,38.4959991 124.840001,38.2400017 124.616,37.904 C124.391999,37.5679983 124.224001,37.1680023 124.112,36.704 C123.999999,36.2399977 123.944,35.7253362 123.944,35.16 C123.944,34.7119978 123.976,34.2933353 124.04,33.904 C124.104,33.5146647 124.197333,33.1680015 124.32,32.864 C124.442667,32.5599985 124.597332,32.2986678 124.784,32.08 C124.970668,31.8613322 125.181332,31.6933339 125.416,31.576 C125.576001,31.4906662 125.725333,31.4453334 125.864,31.44 C126.002667,31.4346666 126.12,31.4639997 126.216,31.528 C126.312,31.5920003 126.384,31.6826661 126.432,31.8 C126.48,31.9173339 126.504,32.0613325 126.504,32.232 L126.504,33.096 C126.504,33.2240006 126.490667,33.3359995 126.464,33.432 C126.437333,33.5280005 126.402667,33.6106663 126.36,33.68 C126.317333,33.7493337 126.309333,33.7706668 126.336,33.744 C126.362667,33.7173332 126.264001,33.8159989 126.04,34.04 C125.976,34.1040003 125.92,34.1679997 125.872,34.232 C125.824,34.2960003 125.778667,34.3706662 125.736,34.456 C125.693333,34.5413338 125.661333,34.6453327 125.64,34.768 C125.618667,34.8906673 125.608,35.0319992 125.608,35.192 C125.608,35.3733342 125.624,35.530666 125.656,35.664 C125.688,35.797334 125.730666,35.9066662 125.784,35.992 C125.837334,36.0773338 125.898666,36.1413331 125.968,36.184 C126.037334,36.2266669 126.109333,36.248 126.184,36.248 C126.28,36.248 126.365333,36.2320002 126.44,36.2 C126.514667,36.1679998 126.578666,36.1120004 126.632,36.032 C126.685334,35.9519996 126.730666,35.8426674 126.768,35.704 C126.805334,35.5653326 126.84,35.3840011 126.872,35.16 L127.064,33.816 C127.117334,33.4319981 127.194666,33.0800016 127.296,32.76 C127.397334,32.4399984 127.535999,32.1520013 127.712,31.896 C127.888001,31.6399987 128.114665,31.4373341 128.392,31.288 C128.669335,31.1386659 128.999998,31.064 129.384,31.064 C129.853336,31.064 130.261332,31.1653323 130.608,31.368 C130.954668,31.5706677 131.242666,31.8586648 131.472,32.232 C131.701334,32.6053352 131.869333,33.0453308 131.976,33.552 C132.082667,34.0586692 132.136,34.615997 132.136,35.224 C132.136,35.7040024 132.106667,36.143998 132.048,36.544 C131.989333,36.944002 131.896001,37.306665 131.768,37.632 C131.639999,37.957335 131.480001,38.2373322 131.288,38.472 C131.095999,38.7066678 130.866668,38.8879994 130.6,39.016 Z M130.6,48.104 C130.439999,48.178667 130.290667,48.2213333 130.152,48.232 C130.013333,48.2426667 129.896,48.218667 129.8,48.16 C129.704,48.101333 129.632,48.0160006 129.584,47.904 C129.536,47.7919994 129.512,47.6613341 129.512,47.512 L129.512,46.648 C129.512,46.5199994 129.522667,46.4026672 129.544,46.296 C129.565333,46.1893328 129.597333,46.0960004 129.64,46.016 C129.682667,45.9359996 129.728,45.8640003 129.776,45.8 C129.824,45.7359997 129.874666,45.6826669 129.928,45.64 C130.013334,45.565333 130.085333,45.4960003 130.144,45.432 C130.202667,45.3679997 130.256,45.2853338 130.304,45.184 C130.352,45.0826662 130.392,44.9600007 130.424,44.816 C130.456,44.6719993 130.472,44.504001 130.472,44.312 C130.472,44.0986656 130.458667,43.9093342 130.432,43.744 C130.405333,43.5786658 130.365334,43.4373339 130.312,43.32 C130.258666,43.2026661 130.192,43.114667 130.112,43.056 C130.032,42.997333 129.938667,42.968 129.832,42.968 C129.714666,42.968 129.616,42.9893331 129.536,43.032 C129.456,43.0746669 129.389334,43.1413329 129.336,43.232 C129.282666,43.3226671 129.24,43.434666 129.208,43.568 C129.176,43.701334 129.149333,43.863999 129.128,44.056 L128.936,45.4 C128.872,45.8266688 128.781334,46.202665 128.664,46.528 C128.546666,46.853335 128.397334,47.1279989 128.216,47.352 C128.034666,47.5760011 127.813335,47.7439994 127.552,47.856 C127.290665,47.9680006 126.984002,48.024 126.632,48.024 C126.194664,48.024 125.805335,47.9360009 125.464,47.76 C125.122665,47.5839991 124.840001,47.3280017 124.616,46.992 C124.391999,46.6559983 124.224001,46.2560023 124.112,45.792 C123.999999,45.3279977 123.944,44.8133362 123.944,44.248 C123.944,43.7999978 123.976,43.3813353 124.04,42.992 C124.104,42.6026647 124.197333,42.2560015 124.32,41.952 C124.442667,41.6479985 124.597332,41.3866678 124.784,41.168 C124.970668,40.9493322 125.181332,40.7813339 125.416,40.664 C125.576001,40.5786662 125.725333,40.5333334 125.864,40.528 C126.002667,40.5226666 126.12,40.5519997 126.216,40.616 C126.312,40.6800003 126.384,40.7706661 126.432,40.888 C126.48,41.0053339 126.504,41.1493325 126.504,41.32 L126.504,42.184 C126.504,42.3120006 126.490667,42.4239995 126.464,42.52 C126.437333,42.6160005 126.402667,42.6986663 126.36,42.768 C126.317333,42.8373337 126.309333,42.8586668 126.336,42.832 C126.362667,42.8053332 126.264001,42.9039989 126.04,43.128 C125.976,43.1920003 125.92,43.2559997 125.872,43.32 C125.824,43.3840003 125.778667,43.4586662 125.736,43.544 C125.693333,43.6293338 125.661333,43.7333327 125.64,43.856 C125.618667,43.9786673 125.608,44.1199992 125.608,44.28 C125.608,44.4613342 125.624,44.618666 125.656,44.752 C125.688,44.885334 125.730666,44.9946662 125.784,45.08 C125.837334,45.1653338 125.898666,45.2293331 125.968,45.272 C126.037334,45.3146669 126.109333,45.336 126.184,45.336 C126.28,45.336 126.365333,45.3200002 126.44,45.288 C126.514667,45.2559998 126.578666,45.2000004 126.632,45.12 C126.685334,45.0399996 126.730666,44.9306674 126.768,44.792 C126.805334,44.6533326 126.84,44.4720011 126.872,44.248 L127.064,42.904 C127.117334,42.5199981 127.194666,42.1680016 127.296,41.848 C127.397334,41.5279984 127.535999,41.2400013 127.712,40.984 C127.888001,40.7279987 128.114665,40.5253341 128.392,40.376 C128.669335,40.2266659 128.999998,40.152 129.384,40.152 C129.853336,40.152 130.261332,40.2533323 130.608,40.456 C130.954668,40.6586677 131.242666,40.9466648 131.472,41.32 C131.701334,41.6933352 131.869333,42.1333308 131.976,42.64 C132.082667,43.1466692 132.136,43.703997 132.136,44.312 C132.136,44.7920024 132.106667,45.231998 132.048,45.632 C131.989333,46.032002 131.896001,46.394665 131.768,46.72 C131.639999,47.045335 131.480001,47.3253322 131.288,47.56 C131.095999,47.7946678 130.866668,47.9759994 130.6,48.104 Z M128.04,57.624 C127.38933,57.624 126.810669,57.5173344 126.304,57.304 C125.797331,57.0906656 125.368002,56.784002 125.016,56.384 C124.663998,55.983998 124.397334,55.5040028 124.216,54.944 C124.034666,54.3839972 123.944,53.7626701 123.944,53.08 C123.944,52.5359973 123.994666,52.0560021 124.096,51.64 C124.197334,51.2239979 124.338666,50.8720014 124.52,50.584 C124.701334,50.2959986 124.909332,50.0533343 125.144,49.856 C125.378668,49.6586657 125.639999,49.4906674 125.928,49.352 C126.066667,49.2879997 126.202666,49.2533334 126.336,49.248 C126.469334,49.2426666 126.586666,49.2719997 126.688,49.336 C126.789334,49.4000003 126.869333,49.4933327 126.928,49.616 C126.986667,49.7386673 127.016,49.8906658 127.016,50.072 L127.016,51 C127.016,51.1280006 127.005333,51.2399995 126.984,51.336 C126.962667,51.4320005 126.930667,51.5146663 126.888,51.584 C126.845333,51.6533337 126.794667,51.717333 126.736,51.776 C126.677333,51.834667 126.605334,51.8906664 126.52,51.944 C126.445333,51.9973336 126.373334,52.061333 126.304,52.136 C126.234666,52.210667 126.170667,52.2959995 126.112,52.392 C126.053333,52.4880005 126.008,52.5999994 125.976,52.728 C125.944,52.8560006 125.928,52.9946659 125.928,53.144 C125.928,53.4000013 125.978666,53.6266657 126.08,53.824 C126.181334,54.0213343 126.327999,54.1893326 126.52,54.328 C126.712001,54.4666674 126.935999,54.5706663 127.192,54.64 C127.448001,54.7093337 127.730665,54.744 128.04,54.744 C128.349335,54.744 128.631999,54.7093337 128.888,54.64 C129.144001,54.5706663 129.367999,54.4666674 129.56,54.328 C129.752001,54.1893326 129.898666,54.0213343 130,53.824 C130.101334,53.6266657 130.152,53.4000013 130.152,53.144 C130.152,52.9839992 130.136,52.837334 130.104,52.704 C130.072,52.570666 130.026667,52.4586671 129.968,52.368 C129.909333,52.2773329 129.848,52.1973337 129.784,52.128 C129.72,52.0586663 129.645334,51.9973336 129.56,51.944 C129.474666,51.8906664 129.402667,51.834667 129.344,51.776 C129.285333,51.717333 129.234667,51.6533337 129.192,51.584 C129.149333,51.5146663 129.117333,51.4320005 129.096,51.336 C129.074667,51.2399995 129.064,51.1280006 129.064,51 L129.064,50.072 C129.064,49.8906658 129.093333,49.7386673 129.152,49.616 C129.210667,49.4933327 129.290666,49.4000003 129.392,49.336 C129.493334,49.2719997 129.610666,49.2426666 129.744,49.248 C129.877334,49.2533334 130.013333,49.2879997 130.152,49.352 C130.440001,49.4906674 130.701332,49.6586657 130.936,49.856 C131.170668,50.0533343 131.378666,50.2959986 131.56,50.584 C131.741334,50.8720014 131.882666,51.2239979 131.984,51.64 C132.085334,52.0560021 132.136,52.5359973 132.136,53.08 C132.136,53.7733368 132.050668,54.3999972 131.88,54.96 C131.709332,55.5200028 131.453335,55.9973314 131.112,56.392 C130.770665,56.7866686 130.341336,57.0906656 129.824,57.304 C129.306664,57.5173344 128.712003,57.624 128.04,57.624 Z"/>
</svg>
