<svg xmlns="http://www.w3.org/2000/svg" width="190" height="87" viewBox="0 0 190 87">
  <path fill="#FFFFFF" fill-rule="evenodd" d="M126.995993,44.7102231 C128.390823,40.8964237 130.308686,37.6858753 132.749639,35.0784818 C135.190593,32.4710883 138.057701,30.5058435 141.351051,29.1826886 C144.6444,27.8595337 148.150796,27.1979661 151.870344,27.1979661 C154.04008,27.1979661 156.035433,27.4120027 157.856461,27.8400822 C159.67749,28.2681618 161.285395,28.8713557 162.680226,29.6496821 C164.075056,30.4280085 165.314887,31.3619862 166.399755,32.4516432 C167.484623,33.5413002 168.375751,34.7476881 169.073167,36.070843 L169.538108,36.070843 C169.305636,34.3585249 169.131285,32.568401 169.015049,30.7004175 C168.898813,28.8324341 168.801951,27.0617681 168.724461,25.3883662 C168.64697,23.7149644 168.608226,22.2556243 168.608226,21.010302 L168.608226,16.9241087 L168.608226,8.51822531 C168.608226,7.11723774 168.782577,5.89139201 169.131284,4.84065133 C169.479992,3.78991066 170.003045,2.91430656 170.700461,2.21381278 C171.397876,1.513319 172.269632,0.987956538 173.315755,0.637709647 C174.361877,0.287462755 175.582336,0.112341936 176.977166,0.112341936 L180.696695,0.112341936 C182.091526,0.112341936 183.311984,0.287462755 184.358107,0.637709647 C185.40423,0.987956538 186.275986,1.513319 186.973401,2.21381278 C187.670816,2.91430656 188.19387,3.78991066 188.542577,4.84065133 C188.891285,5.89139201 189.065636,7.11723774 189.065636,8.51822531 L189.065636,77.516518 C189.065636,78.8396729 188.891285,80.007145 188.542577,81.0189694 C188.19387,82.0307937 187.690188,82.8674821 187.031519,83.5290595 C186.372849,84.190637 185.539837,84.6965416 184.53246,85.0467885 C183.525082,85.3970354 182.362741,85.5721562 181.045401,85.5721562 L177.558343,85.5721562 C176.241003,85.5721562 175.098034,85.4164932 174.129402,85.1051627 C173.160769,84.7938321 172.347131,84.3268433 171.688461,83.7041821 C171.029791,83.081521 170.506737,82.3226641 170.119284,81.4275887 C169.731831,80.5325133 169.538108,79.4623305 169.538108,78.2170082 L169.073167,78.1002599 C168.375751,79.4234148 167.484623,80.6298027 166.399755,81.7194597 C165.314887,82.8091166 164.036312,83.7430943 162.563991,84.5214208 C161.09167,85.2997472 159.386902,85.9029411 157.449638,86.3310207 C155.512373,86.7591002 153.34267,86.9731368 150.940462,86.9731368 C147.375895,86.9731368 144.024478,86.350485 140.88611,85.1051627 C137.747741,83.8598404 134.977494,81.991885 132.575286,79.5012404 C130.173079,77.0105959 128.29396,73.9167947 126.937875,70.2197442 C125.58179,66.5226937 124.903758,62.3003362 124.903758,57.552545 C124.903758,52.8047538 125.601162,48.5240226 126.995993,44.7102231 Z M145.826109,57.552545 C145.826109,59.8096916 146.058577,61.8527678 146.523521,63.6818349 C146.988464,65.510902 147.685869,67.0869894 148.615756,68.4101443 C149.545643,69.7332992 150.707984,70.7451084 152.102815,71.4456022 C153.497645,72.146096 155.124923,72.4963376 156.984697,72.4963376 C158.844471,72.4963376 160.491121,72.1266381 161.924696,71.387228 C163.358272,70.6478179 164.578731,69.5776351 165.586108,68.1766476 C166.593486,66.77566 167.349007,65.141199 167.852696,63.2732156 C168.356385,61.4052322 168.608226,59.3426981 168.608226,57.0855514 C168.608226,54.8284048 168.356385,52.7658707 167.852696,50.8978873 C167.349007,49.0299039 166.593486,47.3954429 165.586108,45.9944553 C164.578731,44.5934678 163.358272,43.523285 161.924696,42.7838749 C160.491121,42.0444648 158.844471,41.6747653 156.984697,41.6747653 C155.202413,41.6747653 153.594508,42.0833805 152.160932,42.9006233 C150.727357,43.717866 149.545643,44.8464224 148.615756,46.2863263 C147.685869,47.7262302 146.988464,49.3996069 146.523521,51.3065066 C146.058577,53.2134064 145.826109,55.2953983 145.826109,57.552545 Z M67.6221137,77.1662728 L67.6221137,8.51822531 C67.6221137,7.11723774 67.7964649,5.89139201 68.1451725,4.84065133 C68.4938801,3.78991066 69.0169336,2.91430656 69.7143488,2.21381278 C70.411764,1.513319 71.28352,0.987956538 72.3296428,0.637709647 C73.3757656,0.287462755 74.5962239,0.112341936 75.9910543,0.112341936 L79.7105835,0.112341936 C81.105414,0.112341936 82.3258723,0.287462755 83.3719951,0.637709647 C84.4181179,0.987956538 85.2898738,1.513319 85.987289,2.21381278 C86.6847042,2.91430656 87.2077578,3.78991066 87.5564654,4.84065133 C87.905173,5.89139201 88.0795242,7.11723774 88.0795242,8.51822531 L88.0795242,47.8624294 L98.7731706,36.070843 C100.09051,34.5920228 101.272224,33.3856349 102.318347,32.4516432 C103.36447,31.5176515 104.371832,30.7587946 105.340464,30.1750498 C106.309097,29.591305 107.335831,29.1826898 108.420699,28.9491918 C109.505568,28.7156939 110.745398,28.5989467 112.140229,28.5989467 L116.78964,28.5989467 C118.184471,28.5989467 119.346812,28.8324411 120.276699,29.299437 C121.206586,29.7664328 121.865246,30.4085425 122.252699,31.2257852 C122.640152,32.043028 122.698269,32.9575478 122.427052,33.9693722 C122.155835,34.9811965 121.516547,35.9930057 120.509169,37.0048301 L106.560935,51.715126 L124.228699,77.1662728 C125.081095,78.3337625 125.565404,79.4234031 125.68164,80.4352275 C125.797875,81.4470518 125.58478,82.3421138 125.042346,83.1204402 C124.499911,83.8987666 123.725017,84.5019606 122.71764,84.9300401 C121.710262,85.3581196 120.509176,85.5721562 119.114346,85.5721562 L112.256464,85.5721562 C110.861634,85.5721562 109.67992,85.3970354 108.711288,85.0467885 C107.742655,84.6965416 106.8709,84.190637 106.095994,83.5290595 C105.321088,82.8674821 104.584938,82.0697095 103.887523,81.1357178 C103.190108,80.201726 102.260235,78.878591 101.097876,77.1662728 L93.4263474,65.6081832 L88.0795242,71.3288538 L88.0795242,77.1662728 C88.0795242,78.5672604 87.905173,79.7931061 87.5564654,80.8438468 C87.2077578,81.8945875 86.6847042,82.7701916 85.987289,83.4706854 C85.2898738,84.1711791 84.4181179,84.6965416 83.3719951,85.0467885 C82.3258723,85.3970354 81.105414,85.5721562 79.7105835,85.5721562 L75.9910543,85.5721562 C74.5962239,85.5721562 73.3757656,85.3970354 72.3296428,85.0467885 C71.28352,84.6965416 70.411764,84.1711791 69.7143488,83.4706854 C69.0169336,82.7701916 68.4938801,81.8945875 68.1451725,80.8438468 C67.7964649,79.7931061 67.6221137,78.5672604 67.6221137,77.1662728 Z M0.925411543,57.0855514 C0.925411543,52.3377602 1.70030571,48.1154027 3.25011729,44.4183522 C4.79992887,40.7213017 7.02774959,37.5885848 9.9336463,35.0201076 C12.839543,32.4516304 16.3265668,30.5058435 20.3948221,29.1826886 C24.4630775,27.8595337 28.9768361,27.1979661 33.9362331,27.1979661 C37.8882526,27.1979661 41.3752764,27.5676656 44.397409,28.3070757 C47.4195415,29.0464858 49.9766923,30.0777529 52.0689379,31.4009078 C54.1611835,32.7240627 55.9240678,34.2417765 57.3576435,35.9540946 C58.7912192,37.6664128 60.0116775,39.5732839 61.019055,41.6747653 C61.4839985,42.6865896 61.7358391,43.6789409 61.7745844,44.651849 C61.8133297,45.624757 61.6002338,46.4809032 61.1352903,47.2203133 C60.6703468,47.9597234 59.9923144,48.5434595 59.1011728,48.971539 C58.2100311,49.3996186 57.1058069,49.6136551 55.7884671,49.6136551 L49.0468204,49.6136551 C48.1169335,49.6136551 47.3032946,49.5358236 46.6058794,49.3801584 C45.9084642,49.2244931 45.3079212,48.9909986 44.8042325,48.6796681 C44.3005437,48.3683375 43.8356072,47.998638 43.409409,47.5705585 C42.9832108,47.1424789 42.5763914,46.6171165 42.1889385,45.9944553 C41.8014856,45.4496268 41.3365491,44.9242644 40.794115,44.4183522 C40.251681,43.91244 39.6317657,43.4454512 38.9343505,43.0173716 C38.2369352,42.5892921 37.4232964,42.2585083 36.4934094,42.0250104 C35.5635225,41.7915125 34.5561601,41.6747653 33.471292,41.6747653 C31.6115181,41.6747653 29.964868,42.0444648 28.5312923,42.7838749 C27.0977165,43.523285 25.8772582,44.5934678 24.8698807,45.9944553 C23.8625032,47.3954429 23.1069814,49.0299039 22.6032926,50.8978873 C22.0996038,52.7658707 21.8477632,54.8284048 21.8477632,57.0855514 C21.8477632,59.3426981 22.0996038,61.4052322 22.6032926,63.2732156 C23.1069814,65.141199 23.8625032,66.77566 24.8698807,68.1766476 C25.8772582,69.5776351 27.0977165,70.6478179 28.5312923,71.387228 C29.964868,72.1266381 31.6115181,72.4963376 33.471292,72.4963376 C34.6336506,72.4963376 35.6991301,72.3795904 36.6677624,72.1460925 C37.6363946,71.9125946 38.4500335,71.5818108 39.1087034,71.1537312 C39.7673733,70.7256517 40.3485439,70.2781207 40.8522327,69.8111249 C41.3559215,69.344129 41.8014856,68.7993087 42.1889385,68.1766476 C42.5763914,67.5539864 42.9832108,67.028624 43.409409,66.6005444 C43.8356072,66.1724649 44.3005437,65.8027654 44.8042325,65.4914348 C45.3079212,65.1801042 45.9084642,64.9466098 46.6058794,64.7909445 C47.3032946,64.6352792 48.1169335,64.5574478 49.0468204,64.5574478 L55.7884671,64.5574478 C57.1058069,64.5574478 58.2100311,64.7714843 59.1011728,65.1995639 C59.9923144,65.6276434 60.6703468,66.2113795 61.1352903,66.9507896 C61.6002338,67.6901997 61.8133297,68.5463459 61.7745844,69.5192539 C61.7358391,70.492162 61.4839985,71.4845133 61.019055,72.4963376 C60.0116775,74.597819 58.7912192,76.5046901 57.3576435,78.2170082 C55.9240678,79.9293264 54.1611835,81.4470401 52.0689379,82.7701951 C49.9766923,84.09335 47.4195415,85.124617 44.397409,85.8640271 C41.3752764,86.6034373 37.8882526,86.9731368 33.9362331,86.9731368 C28.8993455,86.9731368 24.3468423,86.350485 20.2785869,85.1051627 C16.2103315,83.8598404 12.7426801,81.991885 9.87552866,79.5012404 C7.00837724,77.0105959 4.79992887,73.877879 3.25011729,70.1029958 C1.70030571,66.3281127 0.925411543,61.9890079 0.925411543,57.0855514 Z M182.47167,54.7241404 C182.247153,54.8284547 182.037606,54.8880619 181.843025,54.9029639 C181.648443,54.917866 181.4838,54.8843369 181.349089,54.8023757 C181.214379,54.7204145 181.113348,54.6012 181.045992,54.4447287 C180.978637,54.2882573 180.94496,54.1057101 180.94496,53.8970816 L180.94496,52.6900228 C180.94496,52.5111983 180.959928,52.3472784 180.989863,52.1982581 C181.019799,52.0492377 181.064702,51.9188469 181.124573,51.8070816 C181.184444,51.6953163 181.248057,51.5947291 181.315412,51.5053169 C181.382767,51.4159047 181.453863,51.3413956 181.528702,51.2817875 C181.648445,51.1774732 181.749476,51.0806115 181.831799,50.9911992 C181.914122,50.901787 181.98896,50.786298 182.056315,50.6447287 C182.12367,50.5031593 182.179799,50.3317885 182.224702,50.130611 C182.269606,49.9294335 182.292057,49.69473 182.292057,49.4264934 C182.292057,49.1284527 182.273347,48.8639455 182.235928,48.6329639 C182.198508,48.4019824 182.14238,48.2045334 182.067541,48.040611 C181.992702,47.8766886 181.899154,47.7537487 181.786896,47.6717875 C181.674637,47.5898263 181.543671,47.5488463 181.393992,47.5488463 C181.229346,47.5488463 181.090896,47.5786499 180.978638,47.6382581 C180.866379,47.6978662 180.772831,47.7910025 180.697992,47.9176698 C180.623153,48.0443371 180.563283,48.2008062 180.51838,48.3870816 C180.473476,48.573357 180.436057,48.8006097 180.406121,49.0688463 L180.136702,50.9464934 C180.046895,51.5425748 179.919671,52.0678636 179.755025,52.5223757 C179.590379,52.9768878 179.380832,53.3606094 179.12638,53.6735522 C178.871927,53.9864949 178.561349,54.2211985 178.194638,54.3776698 C177.827926,54.5341412 177.397608,54.6123757 176.90367,54.6123757 C176.289989,54.6123757 175.743672,54.4894358 175.264702,54.2435522 C174.785732,53.9976686 174.389091,53.6400251 174.074767,53.170611 C173.760442,52.7011969 173.524703,52.142379 173.367541,51.4941404 C173.210379,50.8459019 173.131799,50.1268895 173.131799,49.3370816 C173.131799,48.7111961 173.176702,48.1263 173.266509,47.5823757 C173.356315,47.0384514 173.487282,46.5541425 173.659412,46.1294345 C173.831542,45.7047265 174.048572,45.3396321 174.310509,45.0341404 C174.572445,44.7286487 174.868055,44.4939452 175.197347,44.3300228 C175.421865,44.2108065 175.631411,44.1474738 175.825992,44.1400228 C176.020574,44.1325718 176.185218,44.1735517 176.319928,44.2629639 C176.454638,44.3523762 176.555669,44.4790416 176.623025,44.6429639 C176.69038,44.8068863 176.724057,45.0080608 176.724057,45.2464934 L176.724057,46.4535522 C176.724057,46.6323766 176.705347,46.7888456 176.667928,46.9229639 C176.630508,47.0570823 176.581864,47.1725713 176.521992,47.2694345 C176.462121,47.3662978 176.450895,47.3961014 176.488315,47.3588463 C176.525735,47.3215912 176.387284,47.459433 176.07296,47.7723757 C175.983153,47.8617879 175.904573,47.9511988 175.837218,48.040611 C175.769863,48.1300232 175.706251,48.2343359 175.64638,48.3535522 C175.586508,48.4727685 175.541605,48.6180611 175.51167,48.7894345 C175.481734,48.9608079 175.466767,49.1582569 175.466767,49.3817875 C175.466767,49.6351221 175.489218,49.8549238 175.534121,50.0411992 C175.579025,50.2274747 175.638895,50.3802183 175.713734,50.4994345 C175.788573,50.6186508 175.874637,50.7080617 175.971928,50.7676698 C176.069219,50.827278 176.17025,50.8570816 176.275025,50.8570816 C176.409735,50.8570816 176.529476,50.8347289 176.63425,50.7900228 C176.739025,50.7453167 176.828831,50.6670822 176.90367,50.5553169 C176.978509,50.4435516 177.042121,50.2908081 177.094509,50.0970816 C177.146896,49.9033551 177.195541,49.6500243 177.240444,49.3370816 L177.509863,47.4594345 C177.584702,46.9229613 177.693218,46.4312015 177.835412,45.9841404 C177.977606,45.5370794 178.172185,45.1347304 178.419154,44.7770816 C178.666123,44.4194327 178.984184,44.1362983 179.373347,43.9276698 C179.76251,43.7190413 180.226506,43.6147287 180.765347,43.6147287 C181.423931,43.6147287 181.996442,43.7562959 182.482896,44.0394345 C182.96935,44.3225732 183.373475,44.7249221 183.695283,45.2464934 C184.017091,45.7680646 184.25283,46.3827643 184.402509,47.090611 C184.552187,47.7984577 184.627025,48.5770773 184.627025,49.4264934 C184.627025,50.0970849 184.585864,50.7117847 184.503541,51.270611 C184.421218,51.8294373 184.290251,52.3360989 184.110638,52.790611 C183.931024,53.2451231 183.70651,53.6362956 183.437089,53.9641404 C183.167668,54.2919852 182.845865,54.545316 182.47167,54.7241404 Z M182.47167,67.4766565 C182.247153,67.5809708 182.037606,67.640578 181.843025,67.6554801 C181.648443,67.6703821 181.4838,67.636853 181.349089,67.5548918 C181.214379,67.4729306 181.113348,67.3537162 181.045992,67.1972448 C180.978637,67.0407734 180.94496,66.8582262 180.94496,66.6495977 L180.94496,65.4425389 C180.94496,65.2637145 180.959928,65.0997945 180.989863,64.9507742 C181.019799,64.8017538 181.064702,64.671363 181.124573,64.5595977 C181.184444,64.4478325 181.248057,64.3472452 181.315412,64.257833 C181.382767,64.1684208 181.453863,64.0939117 181.528702,64.0343036 C181.648445,63.9299894 181.749476,63.8331276 181.831799,63.7437154 C181.914122,63.6543032 181.98896,63.5388141 182.056315,63.3972448 C182.12367,63.2556754 182.179799,63.0843046 182.224702,62.8831271 C182.269606,62.6819497 182.292057,62.4472461 182.292057,62.1790095 C182.292057,61.8809688 182.273347,61.6164616 182.235928,61.3854801 C182.198508,61.1544985 182.14238,60.9570495 182.067541,60.7931271 C181.992702,60.6292047 181.899154,60.5062648 181.786896,60.4243036 C181.674637,60.3423424 181.543671,60.3013624 181.393992,60.3013624 C181.229346,60.3013624 181.090896,60.3311661 180.978638,60.3907742 C180.866379,60.4503823 180.772831,60.5435187 180.697992,60.670186 C180.623153,60.7968533 180.563283,60.9533223 180.51838,61.1395977 C180.473476,61.3258732 180.436057,61.5531258 180.406121,61.8213624 L180.136702,63.6990095 C180.046895,64.2950909 179.919671,64.8203798 179.755025,65.2748918 C179.590379,65.7294039 179.380832,66.1131256 179.12638,66.4260683 C178.871927,66.7390111 178.561349,66.9737146 178.194638,67.130186 C177.827926,67.2866573 177.397608,67.3648918 176.90367,67.3648918 C176.289989,67.3648918 175.743672,67.2419519 175.264702,66.9960683 C174.785732,66.7501847 174.389091,66.3925412 174.074767,65.9231271 C173.760442,65.453713 173.524703,64.8948951 173.367541,64.2466565 C173.210379,63.598418 173.131799,62.8794056 173.131799,62.0895977 C173.131799,61.4637122 173.176702,60.8788161 173.266509,60.3348918 C173.356315,59.7909676 173.487282,59.3066587 173.659412,58.8819507 C173.831542,58.4572427 174.048572,58.0921483 174.310509,57.7866565 C174.572445,57.4811648 174.868055,57.2464613 175.197347,57.0825389 C175.421865,56.9633226 175.631411,56.8999899 175.825992,56.8925389 C176.020574,56.8850879 176.185218,56.9260679 176.319928,57.0154801 C176.454638,57.1048923 176.555669,57.2315577 176.623025,57.3954801 C176.69038,57.5594025 176.724057,57.7605769 176.724057,57.9990095 L176.724057,59.2060683 C176.724057,59.3848927 176.705347,59.5413618 176.667928,59.6754801 C176.630508,59.8095984 176.581864,59.9250874 176.521992,60.0219507 C176.462121,60.1188139 176.450895,60.1486175 176.488315,60.1113624 C176.525735,60.0741073 176.387284,60.2119491 176.07296,60.5248918 C175.983153,60.6143041 175.904573,60.7037149 175.837218,60.7931271 C175.769863,60.8825393 175.706251,60.986852 175.64638,61.1060683 C175.586508,61.2252846 175.541605,61.3705773 175.51167,61.5419507 C175.481734,61.7133241 175.466767,61.9107731 175.466767,62.1343036 C175.466767,62.3876382 175.489218,62.6074399 175.534121,62.7937154 C175.579025,62.9799908 175.638895,63.1327344 175.713734,63.2519507 C175.788573,63.3711669 175.874637,63.4605778 175.971928,63.520186 C176.069219,63.5797941 176.17025,63.6095977 176.275025,63.6095977 C176.409735,63.6095977 176.529476,63.587245 176.63425,63.5425389 C176.739025,63.4978328 176.828831,63.4195983 176.90367,63.307833 C176.978509,63.1960678 177.042121,63.0433242 177.094509,62.8495977 C177.146896,62.6558713 177.195541,62.4025405 177.240444,62.0895977 L177.509863,60.2119507 C177.584702,59.6754774 177.693218,59.1837176 177.835412,58.7366565 C177.977606,58.2895955 178.172185,57.8872466 178.419154,57.5295977 C178.666123,57.1719489 178.984184,56.8888145 179.373347,56.680186 C179.76251,56.4715575 180.226506,56.3672448 180.765347,56.3672448 C181.423931,56.3672448 181.996442,56.508812 182.482896,56.7919507 C182.96935,57.0750893 183.373475,57.4774383 183.695283,57.9990095 C184.017091,58.5205807 184.25283,59.1352805 184.402509,59.8431271 C184.552187,60.5509738 184.627025,61.3295935 184.627025,62.1790095 C184.627025,62.8496011 184.585864,63.4643008 184.503541,64.0231271 C184.421218,64.5819535 184.290251,65.0886151 184.110638,65.5431271 C183.931024,65.9976392 183.70651,66.3888118 183.437089,66.7166565 C183.167668,67.0445013 182.845865,67.2978321 182.47167,67.4766565 Z M178.879412,80.8336546 C177.966375,80.8336546 177.154383,80.6846365 176.443412,80.3865958 C175.73244,80.0885551 175.129995,79.660128 174.636057,79.1013017 C174.142119,78.5424754 173.767929,77.8718939 173.513476,77.089537 C173.259023,76.3071801 173.131799,75.4391496 173.131799,74.4854194 C173.131799,73.7254156 173.202895,73.054834 173.345089,72.4736546 C173.487283,71.8924753 173.685604,71.4007155 173.940057,70.9983605 C174.19451,70.5960056 174.486378,70.2569894 174.81567,69.9813017 C175.144962,69.7056141 175.511668,69.4709105 175.915799,69.2771841 C176.11038,69.1877718 176.301217,69.139341 176.488315,69.1318899 C176.675413,69.1244389 176.840056,69.1654189 176.98225,69.2548311 C177.124445,69.3442433 177.236702,69.4746342 177.319025,69.6460076 C177.401348,69.817381 177.442509,70.0297318 177.442509,70.2830664 L177.442509,71.579537 C177.442509,71.7583614 177.427541,71.9148304 177.397605,72.0489488 C177.36767,72.1830671 177.322767,72.2985561 177.262896,72.3954194 C177.203024,72.4922826 177.131928,72.5816935 177.049605,72.6636546 C176.967282,72.7456158 176.866251,72.8238504 176.746509,72.8983605 C176.641734,72.9728707 176.540703,73.0622816 176.443412,73.1665958 C176.346121,73.2709101 176.256315,73.3901246 176.173992,73.5242429 C176.091669,73.6583612 176.028057,73.8148302 175.983154,73.9936546 C175.93825,74.1724791 175.915799,74.3662026 175.915799,74.5748311 C175.915799,74.93248 175.986895,75.2491435 176.129089,75.5248311 C176.271283,75.8005188 176.477088,76.0352223 176.746509,76.2289488 C177.015929,76.4226752 177.330249,76.5679679 177.689476,76.6648311 C178.048704,76.7616943 178.445345,76.8101252 178.879412,76.8101252 C179.313478,76.8101252 179.71012,76.7616943 180.069347,76.6648311 C180.428575,76.5679679 180.742894,76.4226752 181.012315,76.2289488 C181.281736,76.0352223 181.48754,75.8005188 181.629734,75.5248311 C181.771929,75.2491435 181.843025,74.93248 181.843025,74.5748311 C181.843025,74.3513006 181.820573,74.1464007 181.77567,73.9601252 C181.730766,73.7738498 181.667154,73.6173808 181.584831,73.4907135 C181.502508,73.3640462 181.416444,73.2522826 181.326638,73.1554194 C181.236831,73.0585561 181.132058,72.9728707 181.012315,72.8983605 C180.892572,72.8238504 180.791541,72.7456158 180.709218,72.6636546 C180.626895,72.5816935 180.555799,72.4922826 180.495928,72.3954194 C180.436057,72.2985561 180.391154,72.1830671 180.361218,72.0489488 C180.331283,71.9148304 180.316315,71.7583614 180.316315,71.579537 L180.316315,70.2830664 C180.316315,70.0297318 180.357476,69.817381 180.439799,69.6460076 C180.522122,69.4746342 180.634379,69.3442433 180.776573,69.2548311 C180.918767,69.1654189 181.083411,69.1244389 181.270509,69.1318899 C181.457606,69.139341 181.648443,69.1877718 181.843025,69.2771841 C182.247156,69.4709105 182.613862,69.7056141 182.943154,69.9813017 C183.272446,70.2569894 183.564314,70.5960056 183.818767,70.9983605 C184.073219,71.4007155 184.27154,71.8924753 184.413734,72.4736546 C184.555929,73.054834 184.627025,73.7254156 184.627025,74.4854194 C184.627025,75.4540516 184.507284,76.3295331 184.267799,77.1118899 C184.028314,77.8942468 183.669092,78.5611029 183.190121,79.1124782 C182.711151,79.6638535 182.108706,80.0885551 181.382767,80.3865958 C180.656827,80.6846365 179.822384,80.8336546 178.879412,80.8336546 Z"/>
</svg>
